/* XPM */
static char *result[] = {
/* columns rows colors chars-per-pixel */
"21 25 20 1 ",
"  c black",
". c #1A0404",
"X c #232828",
"o c #335E32",
"O c #385054",
"+ c #3E517F",
"@ c #784040",
"# c #687740",
"$ c #82181A",
"% c #991D1E",
"& c #D5382B",
"* c #418244",
"= c #55AC5A",
"- c #C89838",
"; c #D8A078",
": c #0058B3",
"> c #F8D0B8",
", c #89B3DD",
"< c #C8C8D8",
"1 c #E8E8F8",
/* pixels */
"       %%%%%%%       ",
"     %%&&&%&&&%%     ",
"    $&&&&&$&&&&&$    ",
"    .&&&&&$&&&&&.    ",
"   .&&&&&&$&&&&&&.   ",
"   .&&&&&&$&&&&&&.   ",
"   .&&&&&&$&&&&&&.   ",
"   .&&&&&&$&&&&&&.   ",
"  .O$$&&&&$&&&&$$O.  ",
" .OXX$$$$$$$$$$$XXO. ",
" ..XOOXXXXXXXXXOOX.. ",
"   OXXXXOOOOOXXXXO   ",
"  .XXXX..OOO..XXX..  ",
"    ....XX.XX....    ",
"     .....X.....1@   ",
"     .1*o...o**11=#  ",
"    .;;<o=-=-=o:;=.  ",
"    .>;.o*=-=*o...   ",
"   #=>..o*****o.     ",
"   .==..*ooooo*-     ",
"    ...+,*****..     ",
"       ....++,,.     ",
"           +,,.      ",
"           .11.      ",
"            ..       "
};
