/* XPM */
static char *_a30b5ff851f4a1bde58d46391c12d1aYfdIvPCEiBRHaazZ[] = {
/* columns rows colors chars-per-pixel */
"21 25 29 1 ",
"  c black",
". c #0B0101",
"X c #161919",
"o c #232828",
"O c #373737",
"+ c #7F1819",
"@ c #0A4036",
"# c #465E2E",
"$ c #384040",
"% c #385054",
"& c #3E517F",
"* c #784040",
"= c #687740",
"- c #82181A",
"; c #991D1E",
": c #D5382B",
"> c #55AC5A",
", c #9B861B",
"< c #C89838",
"1 c #D8A078",
"2 c #002682",
"3 c #0058B3",
"4 c #828599",
"5 c gray62",
"6 c #9E9EA8",
"7 c #F8D0B8",
"8 c #89B3DD",
"9 c #A8A0C8",
"0 c #E8E8F8",
/* pixels */
"                     ",
"       ;;;;;;;       ",
"     ;;:::;:::;;     ",
"    -:::::-:::::-    ",
"    .:000050000:.    ",
"   .:00000500000:.   ",
"   .:00000##0000:.   ",
"   .00000#5000000.   ",
"  ..0000#####0000..  ",
" .%..::0005000::..%. ",
" ..1.:::::::::::.1.. ",
"  .1*$*:::::::*$*1.  ",
"  .o*1$9$..*$9$1*o.  ",
"  .Xo110.777.011oo.  ",
"   ..*177777771*..   ",
"     .*1771771*.     ",
"    .0>.*111*.>0O    ",
"   .10>33...@3>01O   ",
"  =>1&.,3@@@3,.&1>=  ",
"  .>>..23.@.32..>>.  ",
"   ...&<<+4+<<&...   ",
"     .6&88888&6.     ",
"     .00.....00.     ",
"      ..     ..      ",
"                     "
};
