/* XPM */
static char *result[] = {
/* columns rows colors chars-per-pixel */
"20 25 27 1 ",
"  c black",
". c #190404",
"X c #232828",
"o c #465E2E",
"O c #384040",
"+ c #385054",
"@ c #3E517F",
"# c #784040",
"$ c #991D1E",
"% c #D5382B",
"& c #418244",
"* c #55AC5A",
"= c #9B861B",
"- c #C89838",
"; c #D8A078",
": c #0A38A3",
"> c #004182",
", c #0058B3",
"< c #828599",
"1 c gray62",
"2 c #9E9EA8",
"3 c #F8D0B8",
"4 c #89B3DD",
"5 c #A8A0C8",
"6 c #CECED3",
"7 c #C8C8D8",
"8 c #E8E8F8",
/* pixels */
"                    ",
"      $$$$$$        ",
"    .$$%%188$$      ",
"   $%%%%%81118$     ",
"  $$%%%%%%88o1$     ",
"  $%%%%%%%88o18$    ",
"  $$%%%%%%88oo8$    ",
"  $$%%%%%%88o81$$$  ",
"  $$$$%%%%8888$$%$$ ",
"  $$$$$$$$8888$%%$. ",
"  .#$$$$$$$8$$$$$.  ",
"   ..#$$$$$$$$...   ",
"  .++.XXX;O;5.#.    ",
" ...++XX;;O;8.;#    ",
"   XXXXX;;;3333;    ",
"  ..X..##;;;33;     ",
"    .*&&# ###       ",
"    .*&O&*##=       ",
"    .*&O 88:,       ",
"    .&&O 77:,.      ",
"     ...*;.--< 62   ",
"     .>.**.444@,.   ",
"     .>>....@@,.    ",
"      ..     ..     ",
"                    "
};
