/* XPM */
static char *result[] = {
/* columns rows colors chars-per-pixel */
"20 25 22 1 ",
"  c black",
". c #232828",
"X c #465E2E",
"o c #384040",
"O c #385054",
"+ c #3E517F",
"@ c #784040",
"# c #991D1E",
"$ c #D5382B",
"% c #418244",
"& c #55AC5A",
"* c #9B861B",
"= c #C89838",
"- c #D8A078",
"; c #0058B3",
": c gray62",
"> c #9E9EA8",
", c #F8D0B8",
"< c #89B3DD",
"1 c #A8A0C8",
"2 c #C8C8D8",
"3 c #E8E8F8",
/* pixels */
"                    ",
"      ######        ",
"     ##$$:33##      ",
"   #$$$$$3:::3#     ",
"  ##$$$$$$33X:#     ",
"  #$$$$$$$33X:3#    ",
"  ##$$$$$$33XX3#    ",
"  ##$$$$$$33X3:###  ",
"  ####$$$$3333##$## ",
"  ########3333#$$#  ",
"   @#######3#####   ",
"     @########      ",
"   OO ...-o-1 @     ",
"    OO..--o-3 -@    ",
"   .....---,,,,-    ",
"    .  @@---,,-     ",
"      %%% @-@       ",
"     =&% %&;*       ",
"     %&% ;33;       ",
"     %&% ;22        ",
"     %%  =-,&       ",
"        +<@&&o      ",
"        >;;3        ",
"                    ",
"                    "
};
