/* XPM */
static char *result[] = {
/* columns rows colors chars-per-pixel */
"21 25 29 1 ",
"  c black",
". c #1A0202",
"X c #232828",
"o c #373737",
"O c #7F1819",
"+ c #0A4036",
"@ c #465E2E",
"# c #384040",
"$ c #385054",
"% c #3E517F",
"& c #784040",
"* c #687740",
"= c #486060",
"- c #82181A",
"; c #991D1E",
": c #D5382B",
"> c #55AC5A",
", c #9B861B",
"< c #C89838",
"1 c #D8A078",
"2 c #002682",
"3 c #0058B3",
"4 c #828599",
"5 c gray62",
"6 c #F8D0B8",
"7 c #89B3DD",
"8 c #A8A0C8",
"9 c #C8C8D8",
"0 c #E8E8F8",
/* pixels */
"       ;;;;;;;       ",
"     ;;:::;:::;;     ",
"    -:::::-:::::-    ",
"    .:000050000:.    ",
"   .:00000500000:.   ",
"   .:00000@@0000:.   ",
"   .00000@5000000.   ",
"  ..0000@@@@@0000..  ",
" .$..::0005000::..$. ",
" ..1.:::::::::::.1.. ",
"  .1&#&:::::::&#&1.  ",
"  .X&1#8#&..#8#1&X.  ",
"  .XX110.666.011X..  ",
"   ..&166666661&..   ",
"     =&1661661&9.    ",
"     o0.&111&.>91.   ",
"    .11>+...33>11>*  ",
"    .61>3+++3,.%>>.  ",
"   .>6.23.+.32....   ",
"   .>>.7<O4O<<7.     ",
"    .. .%777777.     ",
"        ....777.     ",
"           .77.      ",
"           .00.      ",
"            ..       "
};
