/* XPM */
static char *_373ffb88fd849fbb93bcff718795511xQYZugyZjFQ1ZZqQ[] = {
/* columns rows colors chars-per-pixel */
"22 25 43 1 ",
"  c black",
". c #282828",
"X c gray21",
"o c #364336",
"O c #434343",
"+ c #435143",
"@ c #515E43",
"# c #515151",
"$ c #515E51",
"% c gray37",
"& c #5E6B51",
"* c #5E6B5E",
"= c #6B6B5E",
"- c gray42",
"; c #79796B",
": c #797979",
"> c #6B865E",
", c #79865E",
"< c #79945E",
"1 c #86A16B",
"2 c #94AE6B",
"3 c #94AE79",
"4 c #94BC79",
"5 c #868686",
"6 c gray58",
"7 c #A1BC86",
"8 c gray63",
"9 c #AEAEA1",
"0 c #BCBCAE",
"q c #BCBCBC",
"w c #AEC994",
"e c #BCC9AE",
"r c #BCC9BC",
"t c #C9D7AE",
"y c #C9C9BC",
"u c #C9D7BC",
"i c gray79",
"p c #D7D7C9",
"a c #D7D7D7",
"s c #D7E4D7",
"d c #E4E4D7",
"f c #E4E4E4",
"g c white",
/* pixels */
"      .........       ",
"    =@<<<<<<<<<*;     ",
"    #X444444444o#     ",
"  0.1444444444441.    ",
"  0.14444444444e9.    ",
"  0.14444444444sy..X  ",
" X...X4444444wfffffd. ",
" X...X>>>>>>47tte666: ",
" X..........44441..X  ",
" X........5ddgXir.    ",
" %#..X%%%.5ff9.iy.    ",
"   ..Xfff.5ff9.iy.    ",
"    #Xfffqpffaqdy.    ",
"    $Opppffffdsp0O    ",
"   .12...ffffu4o#     ",
"   .13>+.----*@       ",
"   .144@.......       ",
"   .12.8ff5..-        ",
"   .12.8ff5..-        ",
"   .12.8ff5..-        ",
"    #.....&44,.       ",
"    5-.+@@,44,.       ",
"      .>44444,.       ",
"       -XXXXX-        ",
"       5#####:        "
};
