/* XPM */
static char *_45a5d78ea8d4627871350ae36a58853dSTKiAM83T1IEO8g[] = {
/* columns rows colors chars-per-pixel */
"23 25 41 1 ",
"  c black",
". c #282828",
"X c gray21",
"o c #364336",
"O c #434336",
"+ c #434343",
"@ c #435143",
"# c #515143",
"$ c #515E43",
"% c #515151",
"& c #515E51",
"* c gray37",
"= c #5E6B51",
"- c #5E6B5E",
"; c #5E7951",
": c #6B6B5E",
"> c gray42",
", c #79796B",
"< c #797979",
"1 c #6B865E",
"2 c #79945E",
"3 c #86A16B",
"4 c #86AE6B",
"5 c #94AE6B",
"6 c #94AE79",
"7 c #94BC79",
"8 c #868686",
"9 c #869486",
"0 c gray58",
"q c gray63",
"w c #AEAEAE",
"e c #BCBCAE",
"r c #BCBCBC",
"t c #C9C9BC",
"y c #C9D7BC",
"u c gray79",
"i c #D7D7C9",
"p c #D7D7D7",
"a c #D7E4D7",
"s c #E4E4D7",
"d c #E4E4E4",
/* pixels */
"       .........       ",
"     =$222222222-,     ",
"     @X777777777o%     ",
"    .3777777777773.    ",
"    .3777777777773.    ",
"    .3777777777773.    ",
"  X...X7ydddddy7o...X  ",
"  X..><190000091,>..X  ",
"  X..rp.........ut..X  ",
" Xpw.rdsssssssssdt.wpX ",
" .pt*uddtedddetddu*rs. ",
" .pddddd>.ddd.>ddddds. ",
"  %%%tdd>.ddd.>ddu%%%  ",
"  X..wid<+aaa+<die..X  ",
"  X...Xddd777ddd+...X  ",
" $qqq+X>>>$$$>>>X+qqq> ",
" .pdd%...........%dds. ",
" .pdd%...........%dds. ",
" 8888+X;;;...;;;X+888; ",
"  X...X777...777o...X  ",
"    .35...777...43.    ",
"    .36$$$111$$$53.    ",
"    .37777...77773.    ",
"     @XXXX   XXXX%     ",
"     &+%@O   %#O%:     "
};
