/* XPM */
static char *_7d375877817410cfde7f7ef3e8c4a8cqNk8urqkMbYPeR9t[] = {
/* columns rows colors chars-per-pixel */
"26 25 39 1 ",
"  c black",
". c #282828",
"X c gray21",
"o c #364336",
"O c #434336",
"+ c #364351",
"@ c #435143",
"# c #515E43",
"$ c #435E5E",
"% c #515151",
"& c #515E51",
"* c gray37",
"= c #5E6B51",
"- c #516B5E",
"; c #5E7951",
": c #5E6B6B",
"> c #5E6B79",
", c gray42",
"< c #79796B",
"1 c #6B865E",
"2 c #79865E",
"3 c #79945E",
"4 c #86A16B",
"5 c #86AE6B",
"6 c #94AE6B",
"7 c #94AE79",
"8 c #94BC79",
"9 c #868686",
"0 c gray63",
"q c #AEAEA1",
"w c #AEAEAE",
"e c #BCBCAE",
"r c #BCBCBC",
"t c #BCC9AE",
"y c #C9C9BC",
"u c #D7D7C9",
"i c #D7D7D7",
"p c #E4E4D7",
"a c #E4E4E4",
/* pixels */
"        .........         ",
"      >$333333333$-       ",
"      %X888888888oO       ",
"     .4888888888884.      ",
"     .4888888888884.      ",
"     .4888888888884.      ",
"   X..4888888888884..X    ",
"   X..=18888888881=..X    ",
"   X...X888888888o...X    ",
"  Xiw...XXXXXXXXX...wiX   ",
"  .iy*X...........X*rp.   ",
"  .iaa%...........%aap.   ",
"   %%%qrr*.....*rrw%%%    ",
"   X..wuu,XXXXX,uue..X    ",
"   X.....1888882.....X    ",
"  #09..X1=#####=1X..90#   ",
"  .ie..X8#.....#8o..wp.   ",
"  .ie..X888aaa888o..wp.   ",
"   9<..X;48ttt84;X..,9    ",
"   X.....1888882.....X    ",
"     .46.........54.      ",
"     .47###...###64.      ",
"     .48888...88884.      ",
"      &XXXX   XXXX@       ",
"      :++++   ++++&       "
};
