/* XPM */
static char *_bfcab2bc24842058784a43c3d0f96efxuwGRdxRYIXorfQ1[] = {
/* columns rows colors chars-per-pixel */
"22 25 69 1 ",
"  c black",
". c gray18",
"X c #2F302F",
"o c #2F3030",
"O c #313230",
"+ c #323431",
"@ c #343732",
"# c #373A34",
"$ c #393D36",
"% c #3E3E3E",
"& c #40453A",
"* c #444B3D",
"= c #464E3F",
"- c #374243",
"; c #3B494B",
": c #414141",
"> c #484B45",
", c #414F4B",
"< c #4F4F4E",
"1 c #4E5844",
"2 c #505B46",
"3 c #525D47",
"4 c #465B5A",
"5 c #485D5A",
"6 c #525251",
"7 c #5B5B5A",
"8 c #536048",
"9 c #63675E",
"0 c #627055",
"q c #647554",
"w c #6C6C6A",
"e c #6F716C",
"r c #777775",
"t c #6C805A",
"y c #71875D",
"u c #72895E",
"i c #758C60",
"p c #799163",
"a c #819C68",
"s c #84A16B",
"d c #8BA96F",
"f c #93B375",
"g c #97B978",
"h c #868683",
"j c #8B8B89",
"k c #989895",
"l c #9A9A97",
"z c #A4AF96",
"x c #A2A39E",
"c c #A8A8A4",
"v c #B4B4B1",
"b c #BDBDB8",
"n c #BFBFBB",
"m c #A7C28E",
"M c #B2C89D",
"N c #BCC7AF",
"B c #BECFAD",
"V c #C1C1BD",
"C c #C4D2B5",
"Z c #C8D4B9",
"A c #D3D3CE",
"S c #D5D5D1",
"D c #D7D7D3",
"F c #DBDBD6",
"G c #DCDFD5",
"H c #DEDED9",
"J c #DDE0D6",
"K c #E1E2DB",
"L c #E4E4DF",
/* pixels */
"       .........      ",
"      4ppppppppp5     ",
"     6#ggggggggg$&    ",
"    .agggggggggggs.   ",
"    .zBggggggggggs.   ",
"  +..VJggggggggggs.   ",
" .FLLLLLMggggggg$...o ",
" rkkkNCCmgtttttt@...X ",
"  @..agggg..........O ",
"    .nAOxKHj........o ",
"    .nS.cLLj.777O..<  ",
"    .nS.kLLj.LLL:..   ",
"    .nKVFLLAVLLL:-    ",
"    %vSGKLLLLAAA>,    ",
"     6@gZLLLL...ds.   ",
"       29wwww.*ufs.   ",
"       o......2ggs.   ",
"         ..hLLc.ds.   ",
"         ..hLLc.ds.   ",
"         ..hLLc.ds.   ",
"       oyggq.X...&    ",
"       .yggi33*.10    ",
"       .ugggggi.      ",
"        e#####8       ",
"         ;;;;;        "
};
