/* XPM */
static char *result[] = {
/* columns rows colors chars-per-pixel */
"21 25 30 1 ",
"  c black",
". c #0A0101",
"X c #0F141E",
"o c #232828",
"O c #373737",
"+ c #7F1819",
"@ c #0A4036",
"# c #465E2E",
"$ c #384040",
"% c #385054",
"& c #3E517F",
"* c #784040",
"= c #687740",
"- c #486060",
"; c #82181A",
": c #991D1E",
"> c #D5382B",
", c #55AC5A",
"< c #9B861B",
"1 c #C89838",
"2 c #D8A078",
"3 c #002682",
"4 c #0058B3",
"5 c #828599",
"6 c gray62",
"7 c #F8D0B8",
"8 c #89B3DD",
"9 c #A8A0C8",
"0 c #C8C8D8",
"q c #E8E8F8",
/* pixels */
"       :::::::       ",
"     ::>>>:>>>::     ",
"    ;>>>>>;>>>>>;    ",
"    .>qqqq6qqqq>.    ",
"   .>qqqqq6qqqqq>.   ",
"   .>qqqqq##qqqq>.   ",
"   .qqqqq#6qqqqqq.   ",
"  ..qqqq#####qqqq..  ",
" .%..>>qqq6qqq>>..%. ",
" ..2.>>>>>>>>>>>.2.. ",
"  .2*$*>>>>>>>*$*2.  ",
"  .o*2$9$..*$9$2*o.  ",
"  ..o22q.777.q22oo.  ",
"   ..*277777772*..   ",
"    .0*2772772*-     ",
"   .20, *222* qO     ",
"  =,22,44...@,22.    ",
"  .,,&.<4@@@4,27.    ",
"   ....34X@X43.7,.   ",
"     .811+5+18.,,.   ",
"     .888888&. ..    ",
"     .888....        ",
"      .88.           ",
"      .qq.           ",
"       ..            "
};
