/* XPM */
static char *result[] = {
/* columns rows colors chars-per-pixel */
"25 25 45 1 ",
"  c #282828",
". c #283628",
"X c gray21",
"o c #364336",
"O c #434336",
"+ c #364343",
"@ c #364351",
"# c #365151",
"$ c #435143",
"% c #515143",
"& c #515E43",
"* c #435151",
"= c #43515E",
"- c #435E5E",
"; c #5E6B51",
": c #516B5E",
"> c #5E7951",
", c #6B7951",
"< c #6B795E",
"1 c #435E6B",
"2 c #436B6B",
"3 c #5E796B",
"4 c #516B79",
"5 c #517979",
"6 c #6B865E",
"7 c #79945E",
"8 c #79946B",
"9 c #86A16B",
"0 c #94AE6B",
"q c #86A179",
"w c #94AE79",
"e c #94BC79",
"r c #517986",
"t c #5E8686",
"y c #5E9494",
"u c #79AE94",
"i c #5EA1A1",
"p c #6BA1AE",
"a c #6BAEAE",
"s c #79BCAE",
"d c #79BCBC",
"f c #6BBCC9",
"g c #79BCC9",
"h c #86BC94",
"j c #86BCAE",
/* pixels */
"    -gggggggggggggggggggg",
"    -gggggggggggggggytttt",
"    -ggggggggggggggg#    ",
"    -ggggggggggggXXX8ww& ",
"    -gggggggggiii$$$9e8% ",
"    -ggggggggg   weee0   ",
"    X@@@@@@@@@999e9O90   ",
"           XXXew0e8 79   ",
"           eeee6 w8      ",
"       X666e6&e6 &:yyyy* ",
"       oeeee; e6  *gggg1 ",
"    %eeee%        *gggg1 ",
" $>>6e<<e%  =5555X*gggg1 ",
" ;eeeeooe%  rggggX*gggg1 ",
"eee         ,eehgX*gggg1 ",
"69e   ----- ,eehgX*gggg1 ",
" ;e   agggg ,eehgX*gggg1 ",
" XX   qeesg ,eehgX*gggg1 ",
" X@@+ 9eesg ,eehgX*gapp- ",
" 4ggy 9eesg ,eehgX*g#    ",
" 4ggy 9eesg ,eehgXX*XXi* ",
" 4ggy 9eesg ,ewhfX.X Xg1 ",
" 4ggy 9eesg ,e    $e$Xg1 ",
" 4ggy ujjdg 3j *tX$e$Xg1 ",
" 4ggy agggg rg 2gX$e$Xg1 "
};
