/* XPM */
static char *bca1457ec0cb4cde95c4a792aafd3961IZI9EpJQFKTpcWJ9[] = {
/* columns rows colors chars-per-pixel */
"32 32 4 1 ",
"  c #181818",
". c #28F828",
"X c #58B8F8",
"o c #F8F8F8",
/* pixels */
"oXo.oXoXoXo.oXoXoXo.oXoXoXo.oXoX",
".ooo.oXoXooo.oXoXooo.oXoXooo.oXo",
"ooooo.ooooooo.ooooooo.ooooooo.oo",
".o.o.oooXo.o.oooXo.o.oooXo.o.ooo",
"oXo.oXoXoXo.oXoXoXo.oXoXoXo.oXoX",
".oooXo.oooooXo.oooooXo.oooooXo.o",
"oXo.oXoooXo.oXoooXo.oXoooXo.oXoo",
".oXoXoooXoXoXoooXoXoXoooXoXoXooo",
"oXo.oXoXoXo.oXoXoXo.oXoXoXo.oXoX",
".ooo.oXoXooo.oXoXooo.oXoXooo.oXo",
"ooooo.ooooooo.ooooooo.ooooooo.oo",
".o.o.oooXo.o.oooXo.o.oooXo.o.ooo",
"oXo.oXoXoXo.oXoXoXo.oXoXoXo.oXoX",
".oooXo.oooooXo.oooooXo.oooooXo.o",
"oXo.oXoooXo.oXoooXo.oXoooXo.oXoo",
".oXoXoooXoXoXoooXoXoXoooXoXoXooo",
"oXo.oXoXoXo.oXoXo.ooXXoo.Xo.oXoX",
".ooo.oXoXooo.oXoXooXooXooooo.oXo",
"ooooo.ooooooo.ooooXoXX.Xooooo.oo",
" o.o.oooXo.o.oooX.Xo...X.o.o.ooo",
"oXo.oXoXoXo.oXoXoooX..XooXo.oXoX",
".oooXo.oooooXo.ooXXoXXoXXoooXo.o",
"oXo.oXoooXo.oXooooXXXXXXoXo.oXoo",
".oXoXoooXoXoXoooX.ooXXoo.oXoXooo",
"oXo.oXoXoXo.oXoXoXo.oXoXoXo.oXoX",
".ooo.oXoXooo.oXoXooo.oXoXooo.oXo",
"ooooo.ooooooo.ooooooo.ooooooo.oo",
".o.o.oooXo.o.oooXo.o.oooXo.o.ooo",
"oXo.oXoXoXo.oXoXoXo.oXoXoXo.oXoX",
".oooXo.oooooXo.oooooXo.oooooXo.o",
"oXo.oXoooXo.oXoooXo.oXoooXo.oXoo",
".oXoXoooXoXoXoooXoXoXoooXoXoXooo"
};
