/* XPM */
static char *result[] = {
/* columns rows colors chars-per-pixel */
"25 25 44 1 ",
"  c black",
". c #282828",
"X c gray21",
"o c #434336",
"O c #435143",
"+ c #515143",
"@ c #515E43",
"# c #515151",
"$ c #5E5E51",
"% c gray37",
"& c #5E6B51",
"* c #5E6B5E",
"= c #5E7951",
"- c #6B7951",
"; c #6B795E",
": c gray42",
"> c #79796B",
", c #797979",
"< c #6B865E",
"1 c #79865E",
"2 c #79945E",
"3 c #79946B",
"4 c #868679",
"5 c #86A16B",
"6 c #94AE79",
"7 c #94BC79",
"8 c #868686",
"9 c gray58",
"0 c #A1BC86",
"q c #A1BC94",
"w c gray63",
"e c #AEAEA1",
"r c #AEAEAE",
"t c #AEBCA1",
"y c #BCBCAE",
"u c #BCBCBC",
"i c #C9C9BC",
"p c #C9D7BC",
"a c gray79",
"s c #C9D7C9",
"d c #D7D7C9",
"f c #D7E4D7",
"g c #E4E4D7",
"h c #E4E4E4",
/* pixels */
"                         ",
"                         ",
"                         ",
"         @.....:         ",
"      >&&=-----;,,4      ",
"      #..177777<..O      ",
"    2.57777hhh77775.y    ",
"    2.57777hhh77775.y    ",
"    2.57777hhh77775.y    ",
"   X+677777777777776+X   ",
"   XO777777777777777OX   ",
"   XO777777777777777OX   ",
"   X$ddp777777777sdd#X   ",
"   X%hhf000000000ghh$X   ",
"   X%hhhhhhhhhhhhhhh$X   ",
"   w9:ahhhhhhhhhhha:<1   ",
"    r.ihhhhhhhhhhhu.3    ",
"    r.ihhhhhhhhhhhu.3    ",
"    q=488ihhhhhi8888t    ",
"      o..ehhhhhw..#      ",
"         :.....@         ",
"         9::*@@;         ",
"                         ",
"                         ",
"                         "
};
